<svg width="436" height="125" viewBox="0 0 436 125" fill="none" xmlns="http://www.w3.org/2000/svg">
<path d="M144.204 6.10009C145.424 6.10009 146.034 6.71009 146.034 7.9301V11.5901C146.034 12.8101 145.424 13.4201 144.204 13.4201C141.927 13.4201 140.137 14.5588 138.836 16.8361C137.535 19.1134 136.315 21.8788 135.176 25.1321L110.044 96.1361C109.719 97.1121 109.027 97.6001 107.97 97.6001H93.3301C92.354 97.6001 91.6627 97.1121 91.256 96.1361L73.2 47.4581L55.998 96.1361C55.6727 97.1121 54.9814 97.6001 53.924 97.6001H39.162C38.186 97.6001 37.4947 97.1121 37.088 96.1361L10.858 25.1321C9.71938 21.9601 8.49938 19.2354 7.19805 16.9581C5.97805 14.5994 4.18871 13.4201 1.83005 13.4201C0.610045 13.4201 4.52092e-05 12.8101 4.52092e-05 11.5901V7.9301C4.52092e-05 6.71009 0.610045 6.10009 1.83005 6.10009H39.284C40.504 6.10009 41.114 6.71009 41.114 7.9301V11.5901C41.114 12.8101 40.504 13.4201 39.284 13.4201C36.7627 13.4201 34.526 14.2334 32.574 15.8601C30.7034 17.4054 29.768 19.4388 29.768 21.9601C29.768 22.8548 29.9714 23.9121 30.378 25.1321L50.386 80.3981L66.978 30.6221L64.904 25.1321C63.684 21.9601 62.4234 19.2354 61.1221 16.9581C59.902 14.5994 58.194 13.4201 55.998 13.4201C54.778 13.4201 54.168 12.8101 54.168 11.5901V7.9301C54.168 6.71009 54.778 6.10009 55.998 6.10009H93.3301C94.55 6.10009 95.16 6.71009 95.16 7.9301V11.5901C95.16 12.8101 94.55 13.4201 93.3301 13.4201H90.158C88.694 13.4201 87.23 14.0301 85.766 15.2501C84.302 16.4701 83.5701 18.2594 83.5701 20.6181C83.5701 21.6754 83.8141 22.9361 84.302 24.4001L104.432 80.3981L122.854 25.1321C123.179 24.1561 123.342 23.1394 123.342 22.0821C123.342 19.5608 122.407 17.4868 120.536 15.8601C118.665 14.2334 116.469 13.4201 113.948 13.4201C112.728 13.4201 112.118 12.8101 112.118 11.5901V7.9301C112.118 6.71009 112.728 6.10009 113.948 6.10009H144.204ZM155.788 75.7621C157.171 79.1781 159.367 82.2281 162.376 84.9121C165.467 87.5961 169.371 88.9381 174.088 88.9381C176.691 88.9381 179.416 88.2061 182.262 86.7421C185.109 85.2781 187.59 83.0008 189.704 79.9101C189.948 79.5034 190.274 79.3001 190.68 79.3001C191.087 79.3001 191.494 79.4221 191.9 79.6661C192.388 79.9101 193.608 80.6014 195.56 81.7401C195.886 81.9841 196.048 82.3094 196.048 82.7161C196.048 83.2854 195.804 83.9768 195.316 84.7901C193.039 89.0194 189.948 92.4761 186.044 95.1601C182.14 97.8441 177.057 99.1861 170.794 99.1861C164.044 99.1861 158.228 97.6814 153.348 94.6721C148.468 91.6628 144.686 87.6774 142.002 82.7161C139.4 77.7548 138.098 72.3461 138.098 66.4901C138.098 60.8781 138.912 56.0794 140.538 52.0941C142.246 48.0274 144.483 44.7741 147.248 42.3341C150.014 39.8128 153.104 37.9828 156.52 36.8441C160.018 35.6241 163.556 35.0141 167.134 35.0141C171.201 35.0141 174.78 35.8274 177.87 37.4541C180.961 38.9994 183.564 40.9921 185.678 43.4321C187.874 45.8721 189.501 48.4748 190.558 51.2401C191.697 53.9241 192.266 56.4454 192.266 58.8041C192.266 59.4548 191.9 59.9428 191.168 60.2681L155.788 75.7621ZM173.966 58.3161C173.966 54.4121 173.031 51.1994 171.16 48.6781C169.29 46.1568 166.931 44.8961 164.084 44.8961C160.75 44.8961 158.106 46.2381 156.154 48.9221C154.202 51.5248 153.226 54.8188 153.226 58.8041C153.226 60.0241 153.267 61.5288 153.348 63.3181C153.511 65.1074 153.836 66.7341 154.324 68.1981L173.966 58.3161ZM213.753 75.7621C215.135 79.1781 217.331 82.2281 220.341 84.9121C223.431 87.5961 227.335 88.9381 232.053 88.9381C234.655 88.9381 237.38 88.2061 240.227 86.7421C243.073 85.2781 245.554 83.0008 247.669 79.9101C247.913 79.5034 248.238 79.3001 248.645 79.3001C249.051 79.3001 249.458 79.4221 249.865 79.6661C250.353 79.9101 251.573 80.6014 253.525 81.7401C253.85 81.9841 254.013 82.3094 254.013 82.7161C254.013 83.2854 253.769 83.9768 253.281 84.7901C251.003 89.0194 247.913 92.4761 244.009 95.1601C240.105 97.8441 235.021 99.1861 228.759 99.1861C222.008 99.1861 216.193 97.6814 211.313 94.6721C206.433 91.6628 202.651 87.6774 199.967 82.7161C197.364 77.7548 196.063 72.3461 196.063 66.4901C196.063 60.8781 196.876 56.0794 198.503 52.0941C200.211 48.0274 202.447 44.7741 205.213 42.3341C207.978 39.8128 211.069 37.9828 214.485 36.8441C217.982 35.6241 221.52 35.0141 225.099 35.0141C229.165 35.0141 232.744 35.8274 235.835 37.4541C238.925 38.9994 241.528 40.9921 243.643 43.4321C245.839 45.8721 247.465 48.4748 248.523 51.2401C249.661 53.9241 250.231 56.4454 250.231 58.8041C250.231 59.4548 249.865 59.9428 249.133 60.2681L213.753 75.7621ZM231.931 58.3161C231.931 54.4121 230.995 51.1994 229.125 48.6781C227.254 46.1568 224.895 44.8961 222.049 44.8961C218.714 44.8961 216.071 46.2381 214.119 48.9221C212.167 51.5248 211.191 54.8188 211.191 58.8041C211.191 60.0241 211.231 61.5288 211.313 63.3181C211.475 65.1074 211.801 66.7341 212.289 68.1981L231.931 58.3161ZM327.292 90.2801C328.349 90.2801 328.878 90.8901 328.878 92.1101V95.7701C328.878 96.9901 328.268 97.6001 327.048 97.6001H297.158C295.938 97.6001 295.328 96.9901 295.328 95.7701V91.9881C295.328 90.8494 295.856 90.2801 296.914 90.2801H298.744C299.557 90.2801 300.289 90.1174 300.94 89.7921C301.672 89.4668 302.038 89.0194 302.038 88.4501C302.038 87.8808 301.712 87.2708 301.062 86.6201L284.958 69.1741L282.396 71.4921V78.6901C282.396 81.8621 282.518 84.3021 282.762 86.0101C283.087 87.6368 283.697 88.7754 284.592 89.4261C285.568 89.9954 287.032 90.2801 288.984 90.2801C290.204 90.2801 290.814 90.8901 290.814 92.1101V95.7701C290.814 96.9901 290.204 97.6001 288.984 97.6001H256.41C255.19 97.6001 254.58 96.9901 254.58 95.7701V92.1101C254.58 90.8901 255.19 90.2801 256.41 90.2801C259.419 90.2801 261.656 89.1821 263.12 86.9861C264.584 84.7088 265.316 81.9434 265.316 78.6901V32.9401C265.316 30.7441 265.153 28.6294 264.828 26.5961C264.584 24.5628 263.933 22.8548 262.876 21.4721C261.9 20.0081 260.273 19.1541 257.996 18.9101C257.101 18.8288 256.654 18.3001 256.654 17.3241V13.1761C256.654 12.6881 256.776 12.3628 257.02 12.2001C257.345 11.9561 257.792 11.7528 258.362 11.5901C264.868 9.47543 269.911 7.36076 273.49 5.24609C277.068 3.13143 279.671 1.46409 281.298 0.244093C281.542 0.0814285 281.745 9.62019e-05 281.908 9.62019e-05H282.152C282.314 9.62019e-05 282.396 0.0814285 282.396 0.244093V60.7561L297.28 47.2141C297.93 46.5634 298.256 45.9941 298.256 45.5061C298.256 44.4488 297.442 43.9201 295.816 43.9201H292.156C291.098 43.9201 290.57 43.3101 290.57 42.0901V38.4301C290.57 37.2101 291.18 36.6001 292.4 36.6001H319.484C320.704 36.6001 321.314 37.2101 321.314 38.4301V42.0901C321.314 43.3101 320.785 43.9201 319.728 43.9201H318.264C315.905 43.9201 313.79 44.5301 311.92 45.7501C310.13 46.9701 307.65 49.0034 304.478 51.8501L295.084 60.2681L321.192 86.4981C322.574 87.8808 323.672 88.8568 324.486 89.4261C325.299 89.9954 326.112 90.2801 326.926 90.2801H327.292ZM367.14 90.2801C368.36 90.2801 368.97 90.8901 368.97 92.1101V95.7701C368.97 96.9901 368.279 97.6001 366.896 97.6001H332.37C330.987 97.6001 330.296 96.9901 330.296 95.7701V92.1101C330.296 90.8901 330.906 90.2801 332.126 90.2801H332.37C335.379 90.2801 337.575 89.1821 338.958 86.9861C340.422 84.7088 341.154 81.9434 341.154 78.6901V32.9401C341.154 30.6628 340.991 28.5074 340.666 26.4741C340.422 24.4408 339.812 22.7328 338.836 21.3501C337.86 19.8861 336.233 19.0321 333.956 18.7881C332.98 18.7068 332.492 18.1781 332.492 17.2021V13.0541C332.492 12.5661 332.655 12.2408 332.98 12.0781C333.305 11.9154 333.753 11.7121 334.322 11.4681C340.097 9.35343 344.692 7.40143 348.108 5.6121C351.605 3.74143 354.493 1.9521 356.77 0.244093C356.933 0.0814285 357.095 9.62019e-05 357.258 9.62019e-05H357.624C357.787 9.62019e-05 357.868 0.0814285 357.868 0.244093V78.5681C357.868 81.8214 358.6 84.5868 360.064 86.8641C361.528 89.1414 363.765 90.2801 366.774 90.2801H367.14ZM433.892 36.6001C435.112 36.6001 435.722 37.2101 435.722 38.4301V42.0901C435.722 43.3101 435.112 43.9201 433.892 43.9201H432.184C430.883 43.9201 429.744 44.4488 428.768 45.5061C427.792 46.4821 426.572 48.4748 425.108 51.4841L389.728 122.732C389.24 123.789 388.427 124.074 387.288 123.586L381.066 120.414C379.927 119.926 379.602 119.113 380.09 117.974L393.754 88.6941L375.82 51.6061C374.356 48.5968 373.217 46.5634 372.404 45.5061C371.591 44.4488 370.371 43.9201 368.744 43.9201H368.5C367.28 43.9201 366.67 43.3101 366.67 42.0901V38.4301C366.67 37.2101 367.28 36.6001 368.5 36.6001H396.682C397.902 36.6001 398.512 37.2101 398.512 38.4301V42.0901C398.512 43.3101 397.902 43.9201 396.682 43.9201H396.438C393.835 43.9201 392.534 44.9774 392.534 47.0921C392.534 48.1494 392.819 49.4101 393.388 50.8741C393.957 52.2568 394.608 53.7614 395.34 55.3881L403.514 73.2001L412.298 55.1441C413.193 53.4361 413.925 51.8501 414.494 50.3861C415.063 48.8408 415.348 47.5394 415.348 46.4821C415.348 44.7741 414.413 43.9201 412.542 43.9201H410.346C409.126 43.9201 408.516 43.3101 408.516 42.0901V38.4301C408.516 37.2101 409.126 36.6001 410.346 36.6001H433.892Z" fill="url(#paint0_radial_745_980)"/>
<path d="M144.204 6.10009C145.424 6.10009 146.034 6.71009 146.034 7.9301V11.5901C146.034 12.8101 145.424 13.4201 144.204 13.4201C141.927 13.4201 140.137 14.5588 138.836 16.8361C137.535 19.1134 136.315 21.8788 135.176 25.1321L110.044 96.1361C109.719 97.1121 109.027 97.6001 107.97 97.6001H93.3301C92.354 97.6001 91.6627 97.1121 91.256 96.1361L73.2 47.4581L55.998 96.1361C55.6727 97.1121 54.9814 97.6001 53.924 97.6001H39.162C38.186 97.6001 37.4947 97.1121 37.088 96.1361L10.858 25.1321C9.71938 21.9601 8.49938 19.2354 7.19805 16.9581C5.97805 14.5994 4.18871 13.4201 1.83005 13.4201C0.610045 13.4201 4.52092e-05 12.8101 4.52092e-05 11.5901V7.9301C4.52092e-05 6.71009 0.610045 6.10009 1.83005 6.10009H39.284C40.504 6.10009 41.114 6.71009 41.114 7.9301V11.5901C41.114 12.8101 40.504 13.4201 39.284 13.4201C36.7627 13.4201 34.526 14.2334 32.574 15.8601C30.7034 17.4054 29.768 19.4388 29.768 21.9601C29.768 22.8548 29.9714 23.9121 30.378 25.1321L50.386 80.3981L66.978 30.6221L64.904 25.1321C63.684 21.9601 62.4234 19.2354 61.1221 16.9581C59.902 14.5994 58.194 13.4201 55.998 13.4201C54.778 13.4201 54.168 12.8101 54.168 11.5901V7.9301C54.168 6.71009 54.778 6.10009 55.998 6.10009H93.3301C94.55 6.10009 95.16 6.71009 95.16 7.9301V11.5901C95.16 12.8101 94.55 13.4201 93.3301 13.4201H90.158C88.694 13.4201 87.23 14.0301 85.766 15.2501C84.302 16.4701 83.5701 18.2594 83.5701 20.6181C83.5701 21.6754 83.8141 22.9361 84.302 24.4001L104.432 80.3981L122.854 25.1321C123.179 24.1561 123.342 23.1394 123.342 22.0821C123.342 19.5608 122.407 17.4868 120.536 15.8601C118.665 14.2334 116.469 13.4201 113.948 13.4201C112.728 13.4201 112.118 12.8101 112.118 11.5901V7.9301C112.118 6.71009 112.728 6.10009 113.948 6.10009H144.204ZM155.788 75.7621C157.171 79.1781 159.367 82.2281 162.376 84.9121C165.467 87.5961 169.371 88.9381 174.088 88.9381C176.691 88.9381 179.416 88.2061 182.262 86.7421C185.109 85.2781 187.59 83.0008 189.704 79.9101C189.948 79.5034 190.274 79.3001 190.68 79.3001C191.087 79.3001 191.494 79.4221 191.9 79.6661C192.388 79.9101 193.608 80.6014 195.56 81.7401C195.886 81.9841 196.048 82.3094 196.048 82.7161C196.048 83.2854 195.804 83.9768 195.316 84.7901C193.039 89.0194 189.948 92.4761 186.044 95.1601C182.14 97.8441 177.057 99.1861 170.794 99.1861C164.044 99.1861 158.228 97.6814 153.348 94.6721C148.468 91.6628 144.686 87.6774 142.002 82.7161C139.4 77.7548 138.098 72.3461 138.098 66.4901C138.098 60.8781 138.912 56.0794 140.538 52.0941C142.246 48.0274 144.483 44.7741 147.248 42.3341C150.014 39.8128 153.104 37.9828 156.52 36.8441C160.018 35.6241 163.556 35.0141 167.134 35.0141C171.201 35.0141 174.78 35.8274 177.87 37.4541C180.961 38.9994 183.564 40.9921 185.678 43.4321C187.874 45.8721 189.501 48.4748 190.558 51.2401C191.697 53.9241 192.266 56.4454 192.266 58.8041C192.266 59.4548 191.9 59.9428 191.168 60.2681L155.788 75.7621ZM173.966 58.3161C173.966 54.4121 173.031 51.1994 171.16 48.6781C169.29 46.1568 166.931 44.8961 164.084 44.8961C160.75 44.8961 158.106 46.2381 156.154 48.9221C154.202 51.5248 153.226 54.8188 153.226 58.8041C153.226 60.0241 153.267 61.5288 153.348 63.3181C153.511 65.1074 153.836 66.7341 154.324 68.1981L173.966 58.3161ZM213.753 75.7621C215.135 79.1781 217.331 82.2281 220.341 84.9121C223.431 87.5961 227.335 88.9381 232.053 88.9381C234.655 88.9381 237.38 88.2061 240.227 86.7421C243.073 85.2781 245.554 83.0008 247.669 79.9101C247.913 79.5034 248.238 79.3001 248.645 79.3001C249.051 79.3001 249.458 79.4221 249.865 79.6661C250.353 79.9101 251.573 80.6014 253.525 81.7401C253.85 81.9841 254.013 82.3094 254.013 82.7161C254.013 83.2854 253.769 83.9768 253.281 84.7901C251.003 89.0194 247.913 92.4761 244.009 95.1601C240.105 97.8441 235.021 99.1861 228.759 99.1861C222.008 99.1861 216.193 97.6814 211.313 94.6721C206.433 91.6628 202.651 87.6774 199.967 82.7161C197.364 77.7548 196.063 72.3461 196.063 66.4901C196.063 60.8781 196.876 56.0794 198.503 52.0941C200.211 48.0274 202.447 44.7741 205.213 42.3341C207.978 39.8128 211.069 37.9828 214.485 36.8441C217.982 35.6241 221.52 35.0141 225.099 35.0141C229.165 35.0141 232.744 35.8274 235.835 37.4541C238.925 38.9994 241.528 40.9921 243.643 43.4321C245.839 45.8721 247.465 48.4748 248.523 51.2401C249.661 53.9241 250.231 56.4454 250.231 58.8041C250.231 59.4548 249.865 59.9428 249.133 60.2681L213.753 75.7621ZM231.931 58.3161C231.931 54.4121 230.995 51.1994 229.125 48.6781C227.254 46.1568 224.895 44.8961 222.049 44.8961C218.714 44.8961 216.071 46.2381 214.119 48.9221C212.167 51.5248 211.191 54.8188 211.191 58.8041C211.191 60.0241 211.231 61.5288 211.313 63.3181C211.475 65.1074 211.801 66.7341 212.289 68.1981L231.931 58.3161ZM327.292 90.2801C328.349 90.2801 328.878 90.8901 328.878 92.1101V95.7701C328.878 96.9901 328.268 97.6001 327.048 97.6001H297.158C295.938 97.6001 295.328 96.9901 295.328 95.7701V91.9881C295.328 90.8494 295.856 90.2801 296.914 90.2801H298.744C299.557 90.2801 300.289 90.1174 300.94 89.7921C301.672 89.4668 302.038 89.0194 302.038 88.4501C302.038 87.8808 301.712 87.2708 301.062 86.6201L284.958 69.1741L282.396 71.4921V78.6901C282.396 81.8621 282.518 84.3021 282.762 86.0101C283.087 87.6368 283.697 88.7754 284.592 89.4261C285.568 89.9954 287.032 90.2801 288.984 90.2801C290.204 90.2801 290.814 90.8901 290.814 92.1101V95.7701C290.814 96.9901 290.204 97.6001 288.984 97.6001H256.41C255.19 97.6001 254.58 96.9901 254.58 95.7701V92.1101C254.58 90.8901 255.19 90.2801 256.41 90.2801C259.419 90.2801 261.656 89.1821 263.12 86.9861C264.584 84.7088 265.316 81.9434 265.316 78.6901V32.9401C265.316 30.7441 265.153 28.6294 264.828 26.5961C264.584 24.5628 263.933 22.8548 262.876 21.4721C261.9 20.0081 260.273 19.1541 257.996 18.9101C257.101 18.8288 256.654 18.3001 256.654 17.3241V13.1761C256.654 12.6881 256.776 12.3628 257.02 12.2001C257.345 11.9561 257.792 11.7528 258.362 11.5901C264.868 9.47543 269.911 7.36076 273.49 5.24609C277.068 3.13143 279.671 1.46409 281.298 0.244093C281.542 0.0814285 281.745 9.62019e-05 281.908 9.62019e-05H282.152C282.314 9.62019e-05 282.396 0.0814285 282.396 0.244093V60.7561L297.28 47.2141C297.93 46.5634 298.256 45.9941 298.256 45.5061C298.256 44.4488 297.442 43.9201 295.816 43.9201H292.156C291.098 43.9201 290.57 43.3101 290.57 42.0901V38.4301C290.57 37.2101 291.18 36.6001 292.4 36.6001H319.484C320.704 36.6001 321.314 37.2101 321.314 38.4301V42.0901C321.314 43.3101 320.785 43.9201 319.728 43.9201H318.264C315.905 43.9201 313.79 44.5301 311.92 45.7501C310.13 46.9701 307.65 49.0034 304.478 51.8501L295.084 60.2681L321.192 86.4981C322.574 87.8808 323.672 88.8568 324.486 89.4261C325.299 89.9954 326.112 90.2801 326.926 90.2801H327.292ZM367.14 90.2801C368.36 90.2801 368.97 90.8901 368.97 92.1101V95.7701C368.97 96.9901 368.279 97.6001 366.896 97.6001H332.37C330.987 97.6001 330.296 96.9901 330.296 95.7701V92.1101C330.296 90.8901 330.906 90.2801 332.126 90.2801H332.37C335.379 90.2801 337.575 89.1821 338.958 86.9861C340.422 84.7088 341.154 81.9434 341.154 78.6901V32.9401C341.154 30.6628 340.991 28.5074 340.666 26.4741C340.422 24.4408 339.812 22.7328 338.836 21.3501C337.86 19.8861 336.233 19.0321 333.956 18.7881C332.98 18.7068 332.492 18.1781 332.492 17.2021V13.0541C332.492 12.5661 332.655 12.2408 332.98 12.0781C333.305 11.9154 333.753 11.7121 334.322 11.4681C340.097 9.35343 344.692 7.40143 348.108 5.6121C351.605 3.74143 354.493 1.9521 356.77 0.244093C356.933 0.0814285 357.095 9.62019e-05 357.258 9.62019e-05H357.624C357.787 9.62019e-05 357.868 0.0814285 357.868 0.244093V78.5681C357.868 81.8214 358.6 84.5868 360.064 86.8641C361.528 89.1414 363.765 90.2801 366.774 90.2801H367.14ZM433.892 36.6001C435.112 36.6001 435.722 37.2101 435.722 38.4301V42.0901C435.722 43.3101 435.112 43.9201 433.892 43.9201H432.184C430.883 43.9201 429.744 44.4488 428.768 45.5061C427.792 46.4821 426.572 48.4748 425.108 51.4841L389.728 122.732C389.24 123.789 388.427 124.074 387.288 123.586L381.066 120.414C379.927 119.926 379.602 119.113 380.09 117.974L393.754 88.6941L375.82 51.6061C374.356 48.5968 373.217 46.5634 372.404 45.5061C371.591 44.4488 370.371 43.9201 368.744 43.9201H368.5C367.28 43.9201 366.67 43.3101 366.67 42.0901V38.4301C366.67 37.2101 367.28 36.6001 368.5 36.6001H396.682C397.902 36.6001 398.512 37.2101 398.512 38.4301V42.0901C398.512 43.3101 397.902 43.9201 396.682 43.9201H396.438C393.835 43.9201 392.534 44.9774 392.534 47.0921C392.534 48.1494 392.819 49.4101 393.388 50.8741C393.957 52.2568 394.608 53.7614 395.34 55.3881L403.514 73.2001L412.298 55.1441C413.193 53.4361 413.925 51.8501 414.494 50.3861C415.063 48.8408 415.348 47.5394 415.348 46.4821C415.348 44.7741 414.413 43.9201 412.542 43.9201H410.346C409.126 43.9201 408.516 43.3101 408.516 42.0901V38.4301C408.516 37.2101 409.126 36.6001 410.346 36.6001H433.892Z" fill="#0055FF" fill-opacity="0.4"/>
<defs>
<radialGradient id="paint0_radial_745_980" cx="0" cy="0" r="1" gradientUnits="userSpaceOnUse" gradientTransform="translate(117.692 -8.27615) rotate(29.7224) scale(392.813 111.687)">
<stop stop-color="#FFE48A"/>
<stop offset="0.230769" stop-color="#B7FF9D"/>
<stop offset="0.485577" stop-color="#9AE7FF"/>
<stop offset="0.730769" stop-color="#85D6FF"/>
<stop offset="1" stop-color="#FFE2FE"/>
</radialGradient>
</defs>
</svg>
