<svg width="436" height="124" viewBox="0 0 436 124" fill="none" xmlns="http://www.w3.org/2000/svg">
<path d="M433.892 36.6001C435.112 36.6001 435.722 37.2101 435.722 38.4301V42.0901C435.722 43.3101 435.112 43.9201 433.892 43.9201H432.184C430.883 43.9201 429.744 44.4488 428.768 45.5061C427.792 46.4821 426.572 48.4748 425.108 51.4841L389.728 122.732C389.24 123.789 388.427 124.074 387.288 123.586L381.066 120.414C379.927 119.926 379.602 119.113 380.09 117.974L393.754 88.6941L375.82 51.6061C374.356 48.5968 373.217 46.5634 372.404 45.5061C371.591 44.4488 370.371 43.9201 368.744 43.9201H368.5C367.28 43.9201 366.67 43.3101 366.67 42.0901V38.4301C366.67 37.2101 367.28 36.6001 368.5 36.6001H396.682C397.902 36.6001 398.512 37.2101 398.512 38.4301V42.0901C398.512 43.3101 397.902 43.9201 396.682 43.9201H396.438C393.835 43.9201 392.534 44.9774 392.534 47.0921C392.534 48.1494 392.819 49.4101 393.388 50.8741C393.957 52.2568 394.608 53.7614 395.34 55.3881L403.514 73.2001L412.298 55.1441C413.193 53.4361 413.925 51.8501 414.494 50.3861C415.063 48.8408 415.348 47.5394 415.348 46.4821C415.348 44.7741 414.413 43.9201 412.542 43.9201H410.346C409.126 43.9201 408.516 43.3101 408.516 42.0901V38.4301C408.516 37.2101 409.126 36.6001 410.346 36.6001H433.892Z" fill="url(#paint0_linear_729_962)"/>
<path d="M367.14 90.28C368.36 90.28 368.97 90.89 368.97 92.11V95.77C368.97 96.99 368.279 97.6 366.896 97.6H332.37C330.987 97.6 330.296 96.99 330.296 95.77V92.11C330.296 90.89 330.906 90.28 332.126 90.28H332.37C335.379 90.28 337.575 89.182 338.958 86.986C340.422 84.7087 341.154 81.9433 341.154 78.69V32.94C341.154 30.6627 340.991 28.5073 340.666 26.474C340.422 24.4407 339.812 22.7327 338.836 21.35C337.86 19.886 336.233 19.032 333.956 18.788C332.98 18.7067 332.492 18.178 332.492 17.202V13.054C332.492 12.566 332.655 12.2407 332.98 12.078C333.305 11.9153 333.753 11.712 334.322 11.468C340.097 9.35333 344.692 7.40133 348.108 5.612C351.605 3.74133 354.493 1.952 356.77 0.243997C356.933 0.081332 357.095 0 357.258 0H357.624C357.787 0 357.868 0.081332 357.868 0.243997V78.568C357.868 81.8213 358.6 84.5867 360.064 86.864C361.528 89.1413 363.765 90.28 366.774 90.28H367.14Z" fill="url(#paint1_linear_729_962)"/>
<path d="M327.292 90.28C328.349 90.28 328.878 90.89 328.878 92.11V95.77C328.878 96.99 328.268 97.6 327.048 97.6H297.158C295.938 97.6 295.328 96.99 295.328 95.77V91.988C295.328 90.8493 295.856 90.28 296.914 90.28H298.744C299.557 90.28 300.289 90.1173 300.94 89.792C301.672 89.4667 302.038 89.0193 302.038 88.45C302.038 87.8807 301.712 87.2707 301.062 86.62L284.958 69.174L282.396 71.492V78.69C282.396 81.862 282.518 84.302 282.762 86.01C283.087 87.6367 283.697 88.7753 284.592 89.426C285.568 89.9953 287.032 90.28 288.984 90.28C290.204 90.28 290.814 90.89 290.814 92.11V95.77C290.814 96.99 290.204 97.6 288.984 97.6H256.41C255.19 97.6 254.58 96.99 254.58 95.77V92.11C254.58 90.89 255.19 90.28 256.41 90.28C259.419 90.28 261.656 89.182 263.12 86.986C264.584 84.7087 265.316 81.9433 265.316 78.69V32.94C265.316 30.744 265.153 28.6293 264.828 26.596C264.584 24.5627 263.933 22.8547 262.876 21.472C261.9 20.008 260.273 19.154 257.996 18.91C257.101 18.8287 256.654 18.3 256.654 17.324V13.176C256.654 12.688 256.776 12.3627 257.02 12.2C257.345 11.956 257.792 11.7527 258.362 11.59C264.868 9.47533 269.911 7.36067 273.49 5.246C277.068 3.13133 279.671 1.464 281.298 0.243997C281.542 0.081332 281.745 0 281.908 0H282.152C282.314 0 282.396 0.081332 282.396 0.243997V60.756L297.28 47.214C297.93 46.5633 298.256 45.994 298.256 45.506C298.256 44.4487 297.442 43.92 295.816 43.92H292.156C291.098 43.92 290.57 43.31 290.57 42.09V38.43C290.57 37.21 291.18 36.6 292.4 36.6H319.484C320.704 36.6 321.314 37.21 321.314 38.43V42.09C321.314 43.31 320.785 43.92 319.728 43.92H318.264C315.905 43.92 313.79 44.53 311.92 45.75C310.13 46.97 307.65 49.0033 304.478 51.85L295.084 60.268L321.192 86.498C322.574 87.8807 323.672 88.8567 324.486 89.426C325.299 89.9953 326.112 90.28 326.926 90.28H327.292Z" fill="url(#paint2_linear_729_962)"/>
<path d="M213.753 75.7622C215.135 79.1782 217.331 82.2282 220.34 84.9122C223.431 87.5962 227.335 88.9382 232.053 88.9382C234.655 88.9382 237.38 88.2062 240.227 86.7422C243.073 85.2782 245.554 83.0008 247.669 79.9102C247.913 79.5035 248.238 79.3002 248.645 79.3002C249.051 79.3002 249.458 79.4222 249.865 79.6662C250.353 79.9102 251.573 80.6015 253.525 81.7402C253.85 81.9842 254.012 82.3095 254.012 82.7162C254.012 83.2855 253.769 83.9768 253.281 84.7902C251.003 89.0195 247.912 92.4762 244.008 95.1602C240.105 97.8442 235.021 99.1862 228.758 99.1862C222.008 99.1862 216.193 97.6815 211.312 94.6722C206.433 91.6628 202.65 87.6775 199.966 82.7162C197.364 77.7548 196.062 72.3462 196.062 66.4902C196.062 60.8782 196.876 56.0795 198.503 52.0942C200.211 48.0275 202.447 44.7742 205.212 42.3342C207.978 39.8128 211.068 37.9828 214.484 36.8442C217.982 35.6242 221.52 35.0142 225.098 35.0142C229.165 35.0142 232.744 35.8275 235.835 37.4542C238.925 38.9995 241.528 40.9922 243.643 43.4322C245.839 45.8722 247.465 48.4748 248.522 51.2402C249.661 53.9242 250.23 56.4455 250.23 58.8042C250.23 59.4548 249.865 59.9428 249.133 60.2682L213.753 75.7622ZM231.93 58.3162C231.93 54.4122 230.995 51.1995 229.124 48.6782C227.254 46.1568 224.895 44.8962 222.048 44.8962C218.714 44.8962 216.071 46.2382 214.118 48.9222C212.167 51.5248 211.19 54.8188 211.19 58.8042C211.19 60.0242 211.231 61.5288 211.312 63.3182C211.475 65.1075 211.8 66.7342 212.288 68.1982L231.93 58.3162Z" fill="url(#paint3_linear_729_962)"/>
<path d="M155.788 75.7622C157.171 79.1782 159.367 82.2282 162.376 84.9122C165.467 87.5962 169.371 88.9382 174.088 88.9382C176.691 88.9382 179.416 88.2062 182.262 86.7422C185.109 85.2782 187.59 83.0008 189.704 79.9102C189.948 79.5035 190.274 79.3002 190.68 79.3002C191.087 79.3002 191.494 79.4222 191.9 79.6662C192.388 79.9102 193.608 80.6015 195.56 81.7402C195.886 81.9842 196.048 82.3095 196.048 82.7162C196.048 83.2855 195.804 83.9768 195.316 84.7902C193.039 89.0195 189.948 92.4762 186.044 95.1602C182.14 97.8442 177.057 99.1862 170.794 99.1862C164.044 99.1862 158.228 97.6815 153.348 94.6722C148.468 91.6628 144.686 87.6775 142.002 82.7162C139.4 77.7548 138.098 72.3462 138.098 66.4902C138.098 60.8782 138.912 56.0795 140.538 52.0942C142.246 48.0275 144.483 44.7742 147.248 42.3342C150.014 39.8128 153.104 37.9828 156.52 36.8442C160.018 35.6242 163.556 35.0142 167.134 35.0142C171.201 35.0142 174.78 35.8275 177.87 37.4542C180.961 38.9995 183.564 40.9922 185.678 43.4322C187.874 45.8722 189.501 48.4748 190.558 51.2402C191.697 53.9242 192.266 56.4455 192.266 58.8042C192.266 59.4548 191.9 59.9428 191.168 60.2682L155.788 75.7622ZM173.966 58.3162C173.966 54.4122 173.031 51.1995 171.16 48.6782C169.29 46.1568 166.931 44.8962 164.084 44.8962C160.75 44.8962 158.106 46.2382 156.154 48.9222C154.202 51.5248 153.226 54.8188 153.226 58.8042C153.226 60.0242 153.267 61.5288 153.348 63.3182C153.511 65.1075 153.836 66.7342 154.324 68.1982L173.966 58.3162Z" fill="url(#paint4_linear_729_962)"/>
<path d="M144.204 6.1001C145.424 6.1001 146.034 6.7101 146.034 7.9301V11.5901C146.034 12.8101 145.424 13.4201 144.204 13.4201C141.927 13.4201 140.137 14.5588 138.836 16.8361C137.535 19.1134 136.315 21.8788 135.176 25.1321L110.044 96.1361C109.719 97.1121 109.027 97.6001 107.97 97.6001H93.33C92.354 97.6001 91.6627 97.1121 91.256 96.1361L73.2 47.4581L55.998 96.1361C55.6727 97.1121 54.9813 97.6001 53.924 97.6001H39.162C38.186 97.6001 37.4947 97.1121 37.088 96.1361L10.858 25.1321C9.71933 21.9601 8.49933 19.2354 7.198 16.9581C5.978 14.5994 4.18867 13.4201 1.83 13.4201C0.61 13.4201 0 12.8101 0 11.5901V7.9301C0 6.7101 0.61 6.1001 1.83 6.1001H39.284C40.504 6.1001 41.114 6.7101 41.114 7.9301V11.5901C41.114 12.8101 40.504 13.4201 39.284 13.4201C36.7627 13.4201 34.526 14.2334 32.574 15.8601C30.7033 17.4054 29.768 19.4388 29.768 21.9601C29.768 22.8548 29.9713 23.9121 30.378 25.1321L50.386 80.3981L66.978 30.6221L64.904 25.1321C63.684 21.9601 62.4233 19.2354 61.122 16.9581C59.902 14.5994 58.194 13.4201 55.998 13.4201C54.778 13.4201 54.168 12.8101 54.168 11.5901V7.9301C54.168 6.7101 54.778 6.1001 55.998 6.1001H93.33C94.55 6.1001 95.16 6.7101 95.16 7.9301V11.5901C95.16 12.8101 94.55 13.4201 93.33 13.4201H90.158C88.694 13.4201 87.23 14.0301 85.766 15.2501C84.302 16.4701 83.57 18.2594 83.57 20.6181C83.57 21.6754 83.814 22.9361 84.302 24.4001L104.432 80.3981L122.854 25.1321C123.179 24.1561 123.342 23.1394 123.342 22.0821C123.342 19.5608 122.407 17.4868 120.536 15.8601C118.665 14.2334 116.469 13.4201 113.948 13.4201C112.728 13.4201 112.118 12.8101 112.118 11.5901V7.9301C112.118 6.7101 112.728 6.1001 113.948 6.1001H144.204Z" fill="url(#paint5_linear_729_962)"/>
<defs>
<linearGradient id="paint0_linear_729_962" x1="134.077" y1="13.0031" x2="305.377" y2="36.4403" gradientUnits="userSpaceOnUse">
<stop stop-color="#FFE48A"/>
<stop offset="0.230769" stop-color="#B7FF9D"/>
<stop offset="0.485577" stop-color="#9AE7FF"/>
<stop offset="0.730769" stop-color="#85D6FF"/>
<stop offset="1" stop-color="#FFE2FE"/>
</linearGradient>
<linearGradient id="paint1_linear_729_962" x1="134.077" y1="13.003" x2="305.377" y2="36.4402" gradientUnits="userSpaceOnUse">
<stop stop-color="#FFE48A"/>
<stop offset="0.230769" stop-color="#B7FF9D"/>
<stop offset="0.485577" stop-color="#9AE7FF"/>
<stop offset="0.730769" stop-color="#85D6FF"/>
<stop offset="1" stop-color="#FFE2FE"/>
</linearGradient>
<linearGradient id="paint2_linear_729_962" x1="134.077" y1="13.003" x2="305.377" y2="36.4402" gradientUnits="userSpaceOnUse">
<stop stop-color="#FFE48A"/>
<stop offset="0.230769" stop-color="#B7FF9D"/>
<stop offset="0.485577" stop-color="#9AE7FF"/>
<stop offset="0.730769" stop-color="#85D6FF"/>
<stop offset="1" stop-color="#FFE2FE"/>
</linearGradient>
<linearGradient id="paint3_linear_729_962" x1="134.077" y1="13.0031" x2="305.377" y2="36.4404" gradientUnits="userSpaceOnUse">
<stop stop-color="#FFE48A"/>
<stop offset="0.230769" stop-color="#B7FF9D"/>
<stop offset="0.485577" stop-color="#9AE7FF"/>
<stop offset="0.730769" stop-color="#85D6FF"/>
<stop offset="1" stop-color="#FFE2FE"/>
</linearGradient>
<linearGradient id="paint4_linear_729_962" x1="134.077" y1="13.0031" x2="305.377" y2="36.4404" gradientUnits="userSpaceOnUse">
<stop stop-color="#FFE48A"/>
<stop offset="0.230769" stop-color="#B7FF9D"/>
<stop offset="0.485577" stop-color="#9AE7FF"/>
<stop offset="0.730769" stop-color="#85D6FF"/>
<stop offset="1" stop-color="#FFE2FE"/>
</linearGradient>
<linearGradient id="paint5_linear_729_962" x1="134.077" y1="13.0031" x2="305.377" y2="36.4403" gradientUnits="userSpaceOnUse">
<stop stop-color="#FFE48A"/>
<stop offset="0.230769" stop-color="#B7FF9D"/>
<stop offset="0.485577" stop-color="#9AE7FF"/>
<stop offset="0.730769" stop-color="#85D6FF"/>
<stop offset="1" stop-color="#FFE2FE"/>
</linearGradient>
</defs>
</svg>
