<svg fill="none" height="512" viewBox="0 0 512 512" width="512" xmlns="http://www.w3.org/2000/svg"><rect fill="#f8f4ec" height="512" rx="112" width="512"/><g fill="#171717"><path d="m116 156v200c0 14.36 11.64 26 26 26s26-11.64 26-26v-200c0-14.36-11.64-26-26-26s-26 11.64-26 26z"/><path d="m190 156v200c0 14.36 11.64 26 26 26s26-11.64 26-26v-200c0-14.36-11.64-26-26-26s-26 11.64-26 26z" fill-opacity=".9"/><path d="m264 156v200c0 14.36 11.64 26 26 26s26-11.64 26-26v-200c0-14.36-11.64-26-26-26s-26 11.64-26 26z" fill-opacity=".9"/><path d="m344 156v200c0 14.36 11.64 26 26 26s26-11.64 26-26v-200c0-14.36-11.64-26-26-26s-26 11.64-26 26z"/><path d="m168 356c0 14.36 11.64 26 26 26s26-11.64 26-26v-74c0-14.36-11.64-26-26-26s-26 11.64-26 26z"/><path d="m316 356c0 14.36 11.64 26 26 26s26-11.64 26-26v-74c0-14.36-11.64-26-26-26s-26 11.64-26 26z"/><circle cx="256" cy="156" r="26"/></g></svg>